# xmcd CD database file
# Copyright (C) 1997 Ti Kan
#
# Track frame offsets:
#  180
#  26678
#  48205
#  73383
#  105283
#  121788
#  149225
#  169178
#  183285
#  199345
#
# Disc length: 2946 seconds
#
# Revision: 1
# Processed by: cddbd v1.4b41PL1 Copyright (c) Steve Scherf et al.
# Submitted via: CDWizzard Release:4.31
#
DISCID=910b800a
DTITLE=Curtis Mayfield - Living Legend Disc Two
DYEAR=1900
DGENRE=
TTITLE0=Baby It's You
TTITLE1=Something To Believe In
TTITLE2=What Cha Gonna Do
TTITLE3=You're So Good To Me
TTITLE4=Makings Of You
TTITLE5=Mother's Son
TTITLE6=Heartbeat
TTITLE7=Never Let Me Go
TTITLE8=Never Stop Loving Me
TTITLE9=Right Combonation (featuring Linda Clifford)
EXTD=More grooves by the master
EXTT0=
EXTT1=
EXTT2=
EXTT3=
EXTT4=
EXTT5=
EXTT6=
EXTT7=
EXTT8=
EXTT9=
PLAYORDER=
